<svg id="wave" style="transform:rotate(0deg); transition: 0.3s" viewBox="0 0 1440 140" version="1.1" xmlns="http://www.w3.org/2000/svg"><defs><linearGradient id="sw-gradient-0" x1="0" x2="0" y1="1" y2="0"><stop stop-color="rgba(255, 157.665, 0, 1)" offset="0%"></stop><stop stop-color="rgba(254, 197, 56, 1)" offset="100%"></stop></linearGradient></defs><path style="transform:translate(0, 0px); opacity:1" fill="url(#sw-gradient-0)" d="M0,14L60,28C120,42,240,70,360,70C480,70,600,42,720,39.7C840,37,960,61,1080,70C1200,79,1320,75,1440,72.3C1560,70,1680,70,1800,60.7C1920,51,2040,33,2160,35C2280,37,2400,61,2520,72.3C2640,84,2760,84,2880,81.7C3000,79,3120,75,3240,67.7C3360,61,3480,51,3600,60.7C3720,70,3840,98,3960,105C4080,112,4200,98,4320,88.7C4440,79,4560,75,4680,77C4800,79,4920,89,5040,93.3C5160,98,5280,98,5400,91C5520,84,5640,70,5760,58.3C5880,47,6000,37,6120,30.3C6240,23,6360,19,6480,18.7C6600,19,6720,23,6840,30.3C6960,37,7080,47,7200,60.7C7320,75,7440,93,7560,86.3C7680,79,7800,47,7920,28C8040,9,8160,5,8280,11.7C8400,19,8520,37,8580,46.7L8640,56L8640,140L8580,140C8520,140,8400,140,8280,140C8160,140,8040,140,7920,140C7800,140,7680,140,7560,140C7440,140,7320,140,7200,140C7080,140,6960,140,6840,140C6720,140,6600,140,6480,140C6360,140,6240,140,6120,140C6000,140,5880,140,5760,140C5640,140,5520,140,5400,140C5280,140,5160,140,5040,140C4920,140,4800,140,4680,140C4560,140,4440,140,4320,140C4200,140,4080,140,3960,140C3840,140,3720,140,3600,140C3480,140,3360,140,3240,140C3120,140,3000,140,2880,140C2760,140,2640,140,2520,140C2400,140,2280,140,2160,140C2040,140,1920,140,1800,140C1680,140,1560,140,1440,140C1320,140,1200,140,1080,140C960,140,840,140,720,140C600,140,480,140,360,140C240,140,120,140,60,140L0,140Z"></path></svg>