<svg id="wave" style="transform:rotate(180deg); transition: 0.3s" viewBox="0 0 1440 230" version="1.1" xmlns="http://www.w3.org/2000/svg"><defs><linearGradient id="sw-gradient-0" x1="0" x2="0" y1="1" y2="0"><stop stop-color="rgba(255, 157.665, 0, 1)" offset="0%"></stop><stop stop-color="rgba(254, 197, 56, 1)" offset="100%"></stop></linearGradient></defs><path style="transform:translate(0, 0px); opacity:1" fill="url(#sw-gradient-0)" d="M0,23L60,46C120,69,240,115,360,115C480,115,600,69,720,65.2C840,61,960,100,1080,115C1200,130,1320,123,1440,118.8C1560,115,1680,115,1800,99.7C1920,84,2040,54,2160,57.5C2280,61,2400,100,2520,118.8C2640,138,2760,138,2880,134.2C3000,130,3120,123,3240,111.2C3360,100,3480,84,3600,99.7C3720,115,3840,161,3960,172.5C4080,184,4200,161,4320,145.7C4440,130,4560,123,4680,126.5C4800,130,4920,146,5040,153.3C5160,161,5280,161,5400,149.5C5520,138,5640,115,5760,95.8C5880,77,6000,61,6120,49.8C6240,38,6360,31,6480,30.7C6600,31,6720,38,6840,49.8C6960,61,7080,77,7200,99.7C7320,123,7440,153,7560,141.8C7680,130,7800,77,7920,46C8040,15,8160,8,8280,19.2C8400,31,8520,61,8580,76.7L8640,92L8640,230L8580,230C8520,230,8400,230,8280,230C8160,230,8040,230,7920,230C7800,230,7680,230,7560,230C7440,230,7320,230,7200,230C7080,230,6960,230,6840,230C6720,230,6600,230,6480,230C6360,230,6240,230,6120,230C6000,230,5880,230,5760,230C5640,230,5520,230,5400,230C5280,230,5160,230,5040,230C4920,230,4800,230,4680,230C4560,230,4440,230,4320,230C4200,230,4080,230,3960,230C3840,230,3720,230,3600,230C3480,230,3360,230,3240,230C3120,230,3000,230,2880,230C2760,230,2640,230,2520,230C2400,230,2280,230,2160,230C2040,230,1920,230,1800,230C1680,230,1560,230,1440,230C1320,230,1200,230,1080,230C960,230,840,230,720,230C600,230,480,230,360,230C240,230,120,230,60,230L0,230Z"></path></svg>